# xmcd
#
# Track frame offsets: 
#        150
#        17385
#        29353
#        41436
#        52981
#        66300
#        80592
#        94045
#
# Disc length: 1419 seconds
#
# Revision: 0
# Processed by: cddbd v1.5.2PL0 Copyright (c) Steve Scherf et al.
# Submitted via: ExactAudioCopy v0.95b4
#
DISCID=59058908
DTITLE=Hank Williams Jr. - Sensational Country Hits
DYEAR=1994
DGENRE=Classic Country
TTITLE0=All For The Love Of Sunshine
TTITLE1=It's All Over But The Crying
TTITLE2=Cajun Baby
TTITLE3=I Walked Out On Heaven
TTITLE4=Raining In My Heart
TTITLE5=Pride's Not Hard To Swallow
TTITLE6=A Baby Again
TTITLE7=The Last Love Song
EXTD=
EXTT0=
EXTT1=
EXTT2=
EXTT3=
EXTT4=
EXTT5=
EXTT6=
EXTT7=
PLAYORDER=
